<svg viewBox="0 0 512 512" xmlns="http://www.w3.org/2000/svg" role="img" aria-labelledby="title"><title>Neon Wallet</title><defs><linearGradient id="grad" x1="0%" y1="0%" x2="100%" y2="100%"><stop offset="0%" stop-color="#ff5d9f"/><stop offset="100%" stop-color="#7c5cff"/></linearGradient><filter id="glow" x="-50%" y="-50%" width="200%" height="200%"><feGaussianBlur stdDeviation="8" result="coloredBlur"/><feMerge><feMergeNode in="coloredBlur"/><feMergeNode in="SourceGraphic"/></feMerge></filter></defs><rect x="32" y="96" width="448" height="320" rx="40" fill="#090b1b" stroke="url(#grad)" stroke-width="16" filter="url(#glow)"/><path d="M112 176h288a24 24 0 0 1 24 24v120a24 24 0 0 1-24 24H112a24 24 0 0 1-24-24V200a24 24 0 0 1 24-24Z" fill="none" stroke="#fff" stroke-opacity="0.12" stroke-width="12"/><path d="M144 240h112" fill="none" stroke="url(#grad)" stroke-width="14" stroke-linecap="round"/><circle cx="384" cy="256" r="32" fill="#120c2a" stroke="url(#grad)" stroke-width="12"/><path d="M360 252l24 16 24-16" fill="none" stroke="#fff" stroke-width="8" stroke-linecap="round" stroke-linejoin="round"/><path d="M112 172l28-24h208l28 24" fill="none" stroke="#7c5cff" stroke-opacity="0.7" stroke-width="8" stroke-linecap="round"/><path d="M128 384l-16-80a16 16 0 0 1 16-16h320a16 16 0 0 1 16 16l-16 80" fill="none" stroke="#ff5d9f" stroke-opacity="0.6" stroke-width="10" stroke-linecap="round"/></svg>